<?xml version="1.0" encoding="UTF-8"?>
<svg xmlns="http://www.w3.org/2000/svg" viewBox="0 0 963 275" width="100"><path d="M747.1 30.8L638.9 139l-28.3-28.3L718.8 2.5l28.3 28.3zm0 216.4l28.3 28.3 79.9-79.9 79.9 79.9 28.3-28.3L855.3 139 747.1 247.2zm0-216.4L855.3 139l28.3-28.3L775.4 2.5l-28.3 28.3zM610.6 167.3l108.2 108.2 28.3-28.3L638.9 139l-28.3 28.3zM.2 247.2h32.9l21.8-50.6h86.5l22 50.6h33.2L112.2 54H84.5L.2 247.2zm66.9-78.9l31-71.5 31 71.5h-62zm139.2 78.9h29.9V30.8h-29.9v216.4zm102.5 0h26.4l61.9-136.4h-33.5l-41.8 95.6-41.6-95.6H247l61.8 136.4zm221.8-136.5v136.4h-29.9v-11.9c-11.7 8.9-26.4 14.2-42.3 14.2-38.7 0-70-31.3-70-70s31.3-70 70-70c15.9 0 30.5 5.3 42.3 14.2v-13h29.9zm-27 68.8c0-23.4-19-42.4-42.4-42.4s-42.4 19-42.4 42.4 19 42.4 42.4 42.4 42.4-19 42.4-42.4z"/></svg>