<?xml version="1.0" encoding="UTF-8"?><svg id="a" xmlns="http://www.w3.org/2000/svg" width="245" height="100" viewBox="0 0 245 100"><path d="M19.19,0H1.39C.58,0,0,.49,0,1.31v5.09c0,.82.58,1.31,1.39,1.31h17.8c.82,0,1.39-.49,1.39-1.31V1.31c0-.82-.58-1.31-1.39-1.31ZM177.97,77.64h-17.8c-.82,0-1.39.49-1.39,1.31v5.09c0,.82.58,1.31,1.39,1.31h17.8c.82,0,1.39-.49,1.39-1.31v-5.09c0-.82-.58-1.31-1.39-1.31Z" style="fill:#169d69;"/><path d="M19.19,12.52H1.4C.58,12.52,0,13.01,0,13.83v58.28c0,.82.58,1.39,1.39,1.39h17.8c.82,0,1.39-.58,1.39-1.39V13.83c0-.82-.58-1.31-1.39-1.31ZM75.23,12.08h-36.66c-6.15,0-11.07,4.84-11.07,10.91v49.12c0,.82.57,1.39,1.39,1.39h17.8c.82,0,1.39-.57,1.39-1.39V28.15c0-4.84,3.94-8.78,8.78-8.78s8.78,3.94,8.78,8.78v43.96c0,.82.58,1.39,1.39,1.39h17.88c.65,0,1.31-.57,1.31-1.39V22.98c0-6.07-4.92-10.91-10.99-10.91ZM150.47,12.08h-17.8c-.82,0-1.39.49-1.39,1.31v43.88c0,4.92-3.94,8.85-8.78,8.85s-8.78-3.94-8.78-8.85V13.39c0-.82-.58-1.31-1.39-1.31h-17.8c-.82,0-1.39.49-1.39,1.31v49.05c0,6.15,4.92,11.07,11.07,11.07h36.66c6.07,0,10.99-4.92,10.99-11.07V13.39c0-.82-.58-1.31-1.39-1.31ZM177.97,11.84h-17.8c-.82,0-1.39.57-1.39,1.39v58.28c0,.82.58,1.31,1.39,1.31h17.8c.82,0,1.39-.49,1.39-1.31V13.23c0-.82-.58-1.39-1.39-1.39ZM210.97,29.89h32.64c.82,0,1.39-.65,1.39-1.31v-4.9c0-.82-.57-1.39-1.39-1.39h-32.64c-2.3,0-4.1-1.8-4.1-4.1v-4.8c0-.82-.58-1.31-1.39-1.31h-17.8c-.82,0-1.39.49-1.39,1.31v49.05c0,6.15,4.92,11.07,10.99,11.07h36.66c6.15,0,11.07-4.92,11.07-11.07v-14.6c0-.82-.57-1.39-1.39-1.39h-17.8c-.82,0-1.39.57-1.39,1.39v9.6c0,4.84-3.94,8.69-8.78,8.69s-8.78-3.85-8.78-8.69v-23.36c0-2.3,1.8-4.18,4.1-4.18Z" style="fill:#1d1d1b;"/><path d="M43.68,81.5h-1.84v14.23h10.25v-1.84h-8.41v-12.39ZM14.82,95.2l-3.42-7.71h-1.28l4.06,9.05-.39.89c-.27.56-.54.96-.84,1.18-.29.23-.64.34-1.05.34-.33,0-.64-.06-.91-.18-.27-.12-.52-.29-.75-.51l-.57.92c.28.28.61.48.99.62.39.14.79.21,1.22.21s.84-.07,1.19-.22c.36-.14.69-.39.99-.73.3-.35.58-.81.84-1.4l4.55-10.16h-1.21l-3.42,7.71ZM27.56,95.73h10.81v-1.84h-8.97v-4.26h8.01v-1.84h-8.01v-4.45h8.97v-1.84h-10.81v14.23ZM7.36,87.98c-.69-.39-1.46-.58-2.32-.58-.78,0-1.49.18-2.13.54-.54.3-.98.73-1.33,1.28v-5.48H.36v12.82h1.18v-1.82c.35.58.8,1.04,1.37,1.36.63.36,1.35.54,2.14.54.86,0,1.64-.2,2.32-.59.69-.39,1.22-.94,1.62-1.63.39-.7.59-1.5.59-2.41s-.2-1.73-.59-2.42c-.39-.69-.93-1.23-1.62-1.62ZM7.89,93.87c-.3.54-.7.95-1.21,1.24-.51.29-1.08.44-1.73.44s-1.22-.15-1.74-.44c-.51-.29-.92-.71-1.21-1.24-.29-.54-.44-1.15-.44-1.86s.15-1.34.44-1.87c.29-.53.7-.94,1.21-1.24.51-.29,1.09-.44,1.74-.44s1.22.15,1.73.44c.51.29.91.71,1.21,1.24.3.53.45,1.15.45,1.87s-.15,1.32-.45,1.86ZM59.57,81.3c-4.03,0-7.31,3.28-7.31,7.31s3.28,7.31,7.31,7.31,7.31-3.28,7.31-7.31-3.28-7.31-7.31-7.31ZM59.57,94.08c-3.02,0-5.47-2.45-5.47-5.47s2.45-5.47,5.47-5.47,5.47,2.45,5.47,5.47-2.45,5.47-5.47,5.47ZM142.77,80.56l-8.96,15.17h17.91l-8.96-15.17ZM81.06,81.5l-6,11.17-6-11.17h-2.09l8.09,15.07,8.09-15.07h-2.09ZM113.72,95.73h10.81v-1.84h-8.97v-4.26h8.01v-1.84h-8.01v-4.45h8.97v-1.84h-10.81v14.23ZM104.09,81.5h-5.82v14.23h5.82c3.92,0,7.12-3.19,7.12-7.12s-3.19-7.12-7.12-7.12ZM104.09,93.89h-3.98v-10.55h3.98c2.91,0,5.28,2.37,5.28,5.27s-2.37,5.27-5.28,5.27ZM80.55,95.73h2.09l6.04-11.24,6.04,11.24h2.09l-8.13-15.13-8.13,15.13Z" style="fill:#1d1d1b;"/></svg>