<svg xmlns="http://www.w3.org/2000/svg" xmlns:xlink="http://www.w3.org/1999/xlink" version="1.1" id="Lager_1" x="0px" y="0px" style="enable-background:new 0 0 1920 1080;" xml:space="preserve" viewBox="456.8 436.8 1006.4 206.4">
<style type="text/css">
	.st0{fill:#18E4B3;}
</style>
<g>
	<path class="st0" d="M632.3,557.6h81.2c18.9,0,34.2-15.3,34.2-34.2l0,0c0-18.9-15.3-34.2-34.2-34.2H542.3   c-18.9,0-34.2,15.3-34.2,34.2v0c0,18.9,15.3,34.2,34.2,34.2h43.6c15.9,0,31.2,6.3,42.4,17.6l68,68h-68.4l-31.3-31.3   c-1.9-1.9-4.4-2.9-7.1-2.9h-46.1c-47.2,0-86.3-37.7-86.6-84.9c-0.4-47.5,38.1-86.2,85.6-86.2h170c47.2,0,86.3,37.7,86.6,84.9   c0.4,47.5-38.1,86.2-85.6,86.2l-25.7,0l-38.1-38.1C644.4,565.6,638.6,561.3,632.3,557.6L632.3,557.6z"/>
	<g>
		<path class="st0" d="M961.7,610h-2l15.6,33.2h-39.6L920.2,610h-9.6c-11.6,0-20.6-3.1-26.8-9.3c-6.2-6.2-9.3-15.1-9.3-26.8v-101    c0-11.6,3.1-20.6,9.3-26.8c6.2-6.2,15.1-9.3,26.8-9.3h51.1c11.6,0,20.6,3.1,26.8,9.3c6.2,6.2,9.3,15.2,9.3,26.8v101    c0,11.6-3.1,20.6-9.3,26.8C982.3,606.9,973.4,610,961.7,610z M912.1,475.1v96.6c0,4.1,2,6.1,6.1,6.1h35.9c4.1,0,6.1-2,6.1-6.1    v-96.6c0-4.1-2-6.1-6.1-6.1h-35.9C914.1,469,912.1,471,912.1,475.1z"/>
		<path class="st0" d="M1019.2,609V437.8h37.6v138.6h65.4V609H1019.2z"/>
		<path class="st0" d="M1139.1,609V437.8h37.6V609H1139.1z"/>
		<path class="st0" d="M1281.1,609l-19.4-64.4h-24.1V609H1200V437.8h84.8c11.6,0,20.6,3.1,26.8,9.3c6.2,6.2,9.3,15.2,9.3,26.8v34.6    c0,18-7.1,29.4-21.4,34.2l22.1,66.3H1281.1z M1277.2,469.7h-39.6v43h39.6c4.1,0,6.1-2,6.1-6.1v-30.7    C1283.3,471.7,1281.3,469.7,1277.2,469.7z"/>
		<path class="st0" d="M1427.1,610H1376c-11.6,0-20.6-3.1-26.8-9.3c-6.2-6.2-9.3-15.1-9.3-26.8v-101c0-11.6,3.1-20.6,9.3-26.8    c6.2-6.2,15.1-9.3,26.8-9.3h51.1c11.6,0,20.6,3.1,26.8,9.3c6.2,6.2,9.3,15.2,9.3,26.8v101c0,11.6-3.1,20.6-9.3,26.8    C1447.6,606.9,1438.7,610,1427.1,610z M1377.5,475.1v96.6c0,4.1,2,6.1,6.1,6.1h35.9c4.1,0,6.1-2,6.1-6.1v-96.6    c0-4.1-2.1-6.1-6.1-6.1h-35.9C1379.5,469,1377.5,471,1377.5,475.1z"/>
	</g>
</g>
</svg>